<svg id="Group_7" data-name="Group 7" xmlns="http://www.w3.org/2000/svg" width="90" height="90" viewBox="0 0 90 90">
  <path id="Rectangle_24" data-name="Rectangle 24" d="M45,0h0A45,45,0,0,1,90,45V78.75A11.25,11.25,0,0,1,78.75,90H45A45,45,0,0,1,0,45v0A45,45,0,0,1,45,0Z" fill="#6874fc" opacity="0.1"/>
  <path id="Union_21" data-name="Union 21" d="M-3357.655-1997.067v-28.179c0-3.314,4.825-5.91,10.985-5.91s10.985,2.6,10.984,5.91v28.179c0,3.314-4.825,5.911-10.984,5.911S-3357.655-1993.753-3357.655-1997.067Zm1.944,0c0,1.876,3.713,3.967,9.041,3.967s9.041-2.091,9.041-3.967v-3.707c-1.966,1.53-5.25,2.514-9.041,2.514s-7.075-.985-9.041-2.514Zm0-7.1c0,1.876,3.713,3.967,9.041,3.967s9.041-2.091,9.041-3.967v-3.707c-1.966,1.53-5.25,2.514-9.041,2.514s-7.075-.984-9.041-2.514Zm0-7.1c0,1.876,3.713,3.967,9.041,3.967s9.041-2.091,9.041-3.967v-3.707c-1.966,1.529-5.25,2.513-9.041,2.513s-7.075-.984-9.041-2.513Zm0-7.1c0,1.876,3.714,3.967,9.042,3.967s9.041-2.091,9.041-3.967h0v-3.47c-1.966,1.529-5.25,2.514-9.041,2.514s-7.075-.985-9.041-2.514Zm0-6.868c0,1.877,3.714,3.968,9.041,3.968s9.041-2.091,9.041-3.968-3.713-3.967-9.041-3.967S-3355.712-2027.122-3355.712-2025.246Zm-27.18,29.022a.958.958,0,0,1-.109-.438v-14.376c0-3.314,4.825-5.91,10.985-5.91s10.985,2.6,10.985,5.91v14.376a.958.958,0,0,1-.109.438c-.74,2.9-5.25,5.067-10.876,5.067S-3382.152-1993.323-3382.891-1996.223Zm1.835-.844c0,1.876,3.713,3.967,9.041,3.967s9.041-2.091,9.041-3.967v-3.707c-1.967,1.529-5.25,2.514-9.041,2.514s-7.075-.985-9.041-2.514Zm0-7.1c0,1.876,3.713,3.967,9.041,3.967s9.041-2.091,9.041-3.967v-3.47c-1.967,1.529-5.25,2.514-9.041,2.514s-7.075-.985-9.041-2.514Zm0-6.867c0,1.876,3.713,3.967,9.041,3.967s9.041-2.091,9.041-3.967-3.713-3.967-9.041-3.967S-3381.056-2012.913-3381.056-2011.038Z" transform="translate(3404.318 2056.156)" fill="#6874fc"/>
</svg>
