<svg id="Group_7" data-name="Group 7" xmlns="http://www.w3.org/2000/svg" width="90" height="90" viewBox="0 0 90 90">
  <path id="Rectangle_24" data-name="Rectangle 24" d="M45,0h0A45,45,0,0,1,90,45V78.75A11.25,11.25,0,0,1,78.75,90H45A45,45,0,0,1,0,45v0A45,45,0,0,1,45,0Z" fill="#6874fc" opacity="0.1"/>
  <path id="Union_2" data-name="Union 2" d="M-616.658-1926.8v-4.214h-1.4v4.214a2.808,2.808,0,0,1-2.807,2.8,2.808,2.808,0,0,1-2.807-2.8v-4.214h-.819a3.4,3.4,0,0,1-3.392-3.388v-14.155a.7.7,0,0,1,.7-.7h19.649a.7.7,0,0,1,.7.7v14.155a3.394,3.394,0,0,1-3.392,3.388h-.818v4.214a2.808,2.808,0,0,1-2.807,2.8A2.808,2.808,0,0,1-616.658-1926.8Zm.7-5.618a.7.7,0,0,1,.7.7v4.916a1.4,1.4,0,0,0,1.4,1.4,1.4,1.4,0,0,0,1.4-1.4v-4.916a.7.7,0,0,1,.7-.7h1.52a1.989,1.989,0,0,0,1.989-1.985v-13.454h-18.245v13.454a1.99,1.99,0,0,0,1.989,1.985h1.52a.7.7,0,0,1,.7.7v4.916a1.4,1.4,0,0,0,1.4,1.4,1.4,1.4,0,0,0,1.4-1.4v-4.916a.7.7,0,0,1,.7-.7Zm9.824-4.564v-9.818a2.461,2.461,0,0,1,2.456-2.459,2.46,2.46,0,0,1,2.456,2.459v9.818a2.46,2.46,0,0,1-2.456,2.459A2.461,2.461,0,0,1-606.132-1936.985Zm1.4-9.818v9.818a1.055,1.055,0,0,0,1.052,1.055,1.055,1.055,0,0,0,1.053-1.055v-9.818a1.056,1.056,0,0,0-1.053-1.056A1.055,1.055,0,0,0-604.728-1946.8Zm-28.772,9.818v-9.818a2.461,2.461,0,0,1,2.456-2.459,2.461,2.461,0,0,1,2.456,2.459v9.818a2.461,2.461,0,0,1-2.456,2.459A2.461,2.461,0,0,1-633.5-1936.985Zm1.4-9.818v9.818a1.055,1.055,0,0,0,1.053,1.055,1.055,1.055,0,0,0,1.053-1.055v-9.818a1.056,1.056,0,0,0-1.053-1.056A1.056,1.056,0,0,0-632.1-1946.8Zm4.913-3.161a.7.7,0,0,1-.7-.7,10.528,10.528,0,0,1,5.713-9.35l-1.753-2.921a.7.7,0,0,1,.241-.963.7.7,0,0,1,.963.241l1.849,3.082a10.458,10.458,0,0,1,3.514-.616,10.454,10.454,0,0,1,3.513.616l1.849-3.082a.7.7,0,0,1,.963-.241.7.7,0,0,1,.241.963l-1.752,2.921a10.531,10.531,0,0,1,5.712,9.35.7.7,0,0,1-.7.7Zm.729-1.4h18.192a9.134,9.134,0,0,0-9.1-8.421A9.134,9.134,0,0,0-626.455-1951.368Zm13.067-2.808a.462.462,0,0,1-.463-.462v-.925a.462.462,0,0,1,.463-.462h.925a.463.463,0,0,1,.463.462v.925a.462.462,0,0,1-.462.462Zm-8.869,0a.462.462,0,0,1-.462-.462v-.925a.462.462,0,0,1,.462-.462h.926a.462.462,0,0,1,.462.462v.925a.462.462,0,0,1-.462.462Z" transform="translate(662.5 1988)" fill="#6874fc" stroke="#6874fc" stroke-width="0.4"/>
</svg>
