<svg id="Group_7" data-name="Group 7" xmlns="http://www.w3.org/2000/svg" width="90" height="90" viewBox="0 0 90 90">
  <path id="Rectangle_24" data-name="Rectangle 24" d="M45,0h0A45,45,0,0,1,90,45V78.75A11.25,11.25,0,0,1,78.75,90H45A45,45,0,0,1,0,45v0A45,45,0,0,1,45,0Z" fill="#6874fc" opacity="0.1"/>
  <path id="Path_936" data-name="Path 936" d="M4.329,2.918H7.624V1.035A1.068,1.068,0,0,1,8.753,0,1.044,1.044,0,0,1,9.788,1.035V6.965A1.044,1.044,0,0,1,8.753,8,1.068,1.068,0,0,1,7.624,6.965V5.082H4.329A2.13,2.13,0,0,0,2.165,7.247v4.706H34.918V7.247a2.13,2.13,0,0,0-2.165-2.165H28.424V2.918h4.329a4.379,4.379,0,0,1,4.329,4.329V35.765A4.3,4.3,0,0,1,32.753,40H4.329A4.239,4.239,0,0,1,0,35.765V7.247A4.379,4.379,0,0,1,4.329,2.918Zm-2.165,11.2V35.765a2.111,2.111,0,0,0,2.165,2.071H32.753a2.111,2.111,0,0,0,2.165-2.071V14.118ZM25.224,1.035A1.044,1.044,0,0,1,26.259,0a1.068,1.068,0,0,1,1.129,1.035V6.965A1.068,1.068,0,0,1,26.259,8a1.044,1.044,0,0,1-1.035-1.035V5.082H19.576V2.918h5.647Zm-8.753,0a1.035,1.035,0,0,1,2.071,0V6.965a1.035,1.035,0,0,1-2.071,0V5.082H10.824V2.918h5.647Z" transform="translate(26 25)" fill="#6874fc"/>
</svg>
