<svg id="Group_7" data-name="Group 7" xmlns="http://www.w3.org/2000/svg" width="90" height="90" viewBox="0 0 90 90">
  <path id="Rectangle_24" data-name="Rectangle 24" d="M45,0h0A45,45,0,0,1,90,45V78.75A11.25,11.25,0,0,1,78.75,90H45A45,45,0,0,1,0,45v0A45,45,0,0,1,45,0Z" fill="#6874fc" opacity="0.1"/>
  <path id="Union_22" data-name="Union 22" d="M-3913.107-2148.226A19.9,19.9,0,0,1-3920-2147a20.023,20.023,0,0,1-20-20,20.023,20.023,0,0,1,20-20,20.022,20.022,0,0,1,20,20,19.886,19.886,0,0,1-1.226,6.894,8.614,8.614,0,0,1,1.226,4.44,8.677,8.677,0,0,1-8.667,8.667A8.613,8.613,0,0,1-3913.107-2148.226Zm4.44-.108a7.342,7.342,0,0,0,7.334-7.333,7.286,7.286,0,0,0-1.086-3.836l-.107-.164a7.429,7.429,0,0,0-.935-1.159,7.371,7.371,0,0,0-1.256-1.017l-.249-.146a7.317,7.317,0,0,0-3.579-1.01h-.122a7.342,7.342,0,0,0-7.333,7.333v.057s0,.008,0,.011v.055a7.326,7.326,0,0,0,1.01,3.58l.131.223a7.378,7.378,0,0,0,1.285,1.52,7.381,7.381,0,0,0,.906.7l.137.089A7.288,7.288,0,0,0-3908.667-2148.333Zm-30-18.667A18.688,18.688,0,0,0-3920-2148.333a18.6,18.6,0,0,0,5.583-.854,8.662,8.662,0,0,1-1.457-1.666,16.694,16.694,0,0,1-4.126.52A16.686,16.686,0,0,1-3936.667-2167,16.686,16.686,0,0,1-3920-2183.667,16.686,16.686,0,0,1-3903.333-2167a16.685,16.685,0,0,1-.52,4.127,8.658,8.658,0,0,1,1.666,1.457,18.575,18.575,0,0,0,.854-5.583A18.689,18.689,0,0,0-3920-2185.667,18.689,18.689,0,0,0-3938.667-2167Zm3.333,0A15.351,15.351,0,0,0-3920-2151.666a15.323,15.323,0,0,0,3.45-.395,8.643,8.643,0,0,1-.684-2.287v0c0-.017-.005-.033-.007-.05s0-.008,0-.011l-.006-.042,0-.027c0-.009,0-.018,0-.027q-.019-.142-.033-.285h0c0-.018,0-.037-.005-.055a.04.04,0,0,1,0-.005l0-.052a.03.03,0,0,0,0-.007l0-.05s0-.006,0-.009,0-.032,0-.049v-.009c0-.016,0-.032,0-.048s0-.008,0-.011l0-.046s0-.008,0-.012l0-.044a.148.148,0,0,1,0-.015c0-.014,0-.028,0-.043s0-.01,0-.015,0-.027,0-.041,0-.012,0-.018,0-.027,0-.04,0-.012,0-.018,0-.026,0-.039,0-.012,0-.019,0-.026,0-.039,0-.013,0-.02,0-.025,0-.038,0-.013,0-.02,0-.027,0-.04,0-.011,0-.017,0-.038,0-.058a8.677,8.677,0,0,1,8.667-8.667h.361l.043,0h.011l.046,0h.011l.048,0h.008l.051,0h.006l.054,0h0l.056,0h0q.289.023.572.065l.013,0,.041.006.025,0,.027,0,.037.006.016,0,.046.008h0a8.623,8.623,0,0,1,2.125.658,15.348,15.348,0,0,0,.395-3.451A15.351,15.351,0,0,0-3920-2182.333,15.351,15.351,0,0,0-3935.334-2167Zm26,16.667V-2151h-2a.666.666,0,0,1-.667-.666.667.667,0,0,1,.667-.667h2V-2155H-3910a2.669,2.669,0,0,1-2.666-2.667,2.669,2.669,0,0,1,2.666-2.667h.667V-2161a.666.666,0,0,1,.667-.667.666.666,0,0,1,.666.667v.667h2a.667.667,0,0,1,.667.667.666.666,0,0,1-.667.667h-2v2.667h.667a2.669,2.669,0,0,1,2.667,2.667,2.669,2.669,0,0,1-2.667,2.667H-3908v.667a.667.667,0,0,1-.666.667A.667.667,0,0,1-3909.333-2150.333Zm2-2a1.335,1.335,0,0,0,1.333-1.333,1.335,1.335,0,0,0-1.333-1.333H-3908v2.667Zm-4-5.333a1.334,1.334,0,0,0,1.333,1.333h.667V-2159H-3910A1.334,1.334,0,0,0-3911.333-2157.667Zm-9.334,4v-2a.667.667,0,0,1,.667-.667.666.666,0,0,1,.666.667v2a.666.666,0,0,1-.666.667A.666.666,0,0,1-3920.667-2153.667Zm-9.138-3.529a.667.667,0,0,1,0-.943l1.32-1.32a.666.666,0,0,1,.942,0,.666.666,0,0,1,0,.943l-1.319,1.32a.665.665,0,0,1-.472.2A.665.665,0,0,1-3929.8-2157.2Zm7.138-9.8a2.671,2.671,0,0,1,2-2.582V-2175a.667.667,0,0,1,.667-.667.667.667,0,0,1,.666.667v5.417a2.675,2.675,0,0,1,1.916,1.916h2.751a.667.667,0,0,1,.667.667.667.667,0,0,1-.667.667h-2.751a2.671,2.671,0,0,1-2.582,2A2.67,2.67,0,0,1-3922.667-2167Zm1.333,0a1.335,1.335,0,0,0,1.334,1.333,1.335,1.335,0,0,0,1.333-1.333,1.335,1.335,0,0,0-1.333-1.333A1.335,1.335,0,0,0-3921.333-2167Zm12.667.667a.666.666,0,0,1-.667-.667.666.666,0,0,1,.667-.667h2a.666.666,0,0,1,.667.667.666.666,0,0,1-.667.667Zm-24.667,0A.666.666,0,0,1-3934-2167a.666.666,0,0,1,.666-.667h2a.666.666,0,0,1,.667.667.666.666,0,0,1-.667.667Zm20.876-8.21a.665.665,0,0,1,0-.943l1.319-1.319a.666.666,0,0,1,.943,0,.667.667,0,0,1,0,.943l-1.319,1.319a.664.664,0,0,1-.472.2A.662.662,0,0,1-3912.457-2174.543Zm-16.028,0-1.32-1.319a.667.667,0,0,1,0-.943.666.666,0,0,1,.943,0l1.319,1.319a.666.666,0,0,1,0,.943.661.661,0,0,1-.471.2A.662.662,0,0,1-3928.485-2174.543Zm7.818-3.791v-2A.667.667,0,0,1-3920-2181a.666.666,0,0,1,.666.667v2a.666.666,0,0,1-.666.667A.667.667,0,0,1-3920.667-2178.333Z" transform="translate(3965 2212)" fill="#6874fc"/>
</svg>
