<svg xmlns="http://www.w3.org/2000/svg" width="20" height="20" viewBox="0 0 20 20">
  <path id="Union_17" data-name="Union 17" d="M-419.587-6431a5.42,5.42,0,0,1-5.414-5.414v-9.172a5.42,5.42,0,0,1,5.414-5.414h9.172a5.42,5.42,0,0,1,5.414,5.414v9.172a5.42,5.42,0,0,1-5.414,5.414Zm-.882-10a5.475,5.475,0,0,0,5.469,5.468,5.475,5.475,0,0,0,5.469-5.468,5.475,5.475,0,0,0-5.469-5.469A5.475,5.475,0,0,0-420.469-6441Zm9.452-5.795a1.617,1.617,0,0,0,1.616,1.616,1.618,1.618,0,0,0,1.616-1.616,1.618,1.618,0,0,0-1.616-1.616A1.618,1.618,0,0,0-411.017-6446.8ZM-419.3-6441a4.3,4.3,0,0,1,4.3-4.3,4.3,4.3,0,0,1,4.3,4.3,4.3,4.3,0,0,1-4.3,4.3A4.3,4.3,0,0,1-419.3-6441Zm9.452-5.795a.444.444,0,0,1,.443-.443.444.444,0,0,1,.444.443.444.444,0,0,1-.444.443A.444.444,0,0,1-409.844-6446.8Z" transform="translate(425 6451)" fill="#979a9d"/>
</svg>
