<svg id="Group_7" data-name="Group 7" xmlns="http://www.w3.org/2000/svg" width="90" height="90" viewBox="0 0 90 90">
  <path id="Rectangle_24" data-name="Rectangle 24" d="M11.25,0H45A45,45,0,0,1,90,45v0A45,45,0,0,1,45,90h0A45,45,0,0,1,0,45V11.25A11.25,11.25,0,0,1,11.25,0Z" fill="#6874fc" opacity="0.1"/>
  <path id="Union_1" data-name="Union 1" d="M10.82,40c-3.059-.026-5.246-2.727-6.981-5.365C.778,29.972-.572,24.4.225,19.715a11.221,11.221,0,0,1,1.54-4.2,10.336,10.336,0,0,1,8.354-4.987,11.657,11.657,0,0,1,4.107.884,8.235,8.235,0,0,0,2.781.661,6.8,6.8,0,0,0,2.442-.6,11.454,11.454,0,0,1,4.424-.94,10.107,10.107,0,0,1,7.649,4.009.964.964,0,0,1-.287,1.447,6.733,6.733,0,0,0-3.164,3.646,7.035,7.035,0,0,0,4.088,8.926.964.964,0,0,1,.539,1.3,26.9,26.9,0,0,1-2.4,4.5c-1.828,2.778-4.1,5.619-7.1,5.645H23.14a6.436,6.436,0,0,1-2.924-.759,6.552,6.552,0,0,0-3.121-.757h-.049a6.984,6.984,0,0,0-3.2.769A6.678,6.678,0,0,1,10.882,40ZM3.383,16.558A9.32,9.32,0,0,0,2.125,20.04c-.717,4.211.525,9.272,3.324,13.536,1.37,2.083,3.221,4.477,5.388,4.5h.045a4.9,4.9,0,0,0,2.175-.586,8.917,8.917,0,0,1,3.979-.936h.059a8.481,8.481,0,0,1,3.924.932,4.656,4.656,0,0,0,2.121.583h.041c2.105-.018,4.046-2.561,5.5-4.774a22.59,22.59,0,0,0,1.858-3.352,8.976,8.976,0,0,1-4.284-10.964,8.52,8.52,0,0,1,3.04-4.043,7.862,7.862,0,0,0-5.424-2.48,9.686,9.686,0,0,0-3.74.815,8.494,8.494,0,0,1-3.125.73,9.95,9.95,0,0,1-3.431-.774,9.8,9.8,0,0,0-3.457-.771A8.4,8.4,0,0,0,3.383,16.558Zm12.65-5.972c-.063,0-.125,0-.188,0a.964.964,0,0,1-.918-.79,8.217,8.217,0,0,1,2-6.479A9.4,9.4,0,0,1,23.093,0a.964.964,0,0,1,1.021.82A8.777,8.777,0,0,1,22.173,7.4a8.169,8.169,0,0,1-6.14,3.19Zm2.383-6.049A7.111,7.111,0,0,0,16.753,8.6a6.515,6.515,0,0,0,3.9-2.386,7.456,7.456,0,0,0,1.609-4.12A7.883,7.883,0,0,0,18.416,4.537Z" transform="translate(29 24)" fill="#6874fc" stroke="#6874fc" stroke-width="1"/>
</svg>
