<svg id="Group_7" data-name="Group 7" xmlns="http://www.w3.org/2000/svg" width="90" height="90" viewBox="0 0 90 90">
  <path id="Rectangle_24" data-name="Rectangle 24" d="M45,0h0A45,45,0,0,1,90,45V78.75A11.25,11.25,0,0,1,78.75,90H45A45,45,0,0,1,0,45v0A45,45,0,0,1,45,0Z" fill="#6874fc" opacity="0.1"/>
  <path id="Union_8" data-name="Union 8" d="M-604.48-2539.875a4.368,4.368,0,0,1,3.281-4.206v-8.58h-5.048v6.057a3.464,3.464,0,0,1-3.449,3.449h-1.724a4.368,4.368,0,0,1-4.206,3.281,4.4,4.4,0,0,1-4.375-4.374,4.371,4.371,0,0,1,4.375-4.375,4.368,4.368,0,0,1,4.206,3.281h1.724a1.266,1.266,0,0,0,1.262-1.262v-6.057h-3.112a7.521,7.521,0,0,1-7.529-7.529,7.521,7.521,0,0,1,7.529-7.529,11.369,11.369,0,0,1,10.809-7.781,11.333,11.333,0,0,1,9.8,5.594,8.633,8.633,0,0,1,9.758,8.581,8.652,8.652,0,0,1-8.665,8.665h-1.977v6.057a1.265,1.265,0,0,0,1.262,1.262h1.724a4.368,4.368,0,0,1,4.206-3.281,4.491,4.491,0,0,1,4.416,4.375,4.371,4.371,0,0,1-4.374,4.374,4.367,4.367,0,0,1-4.206-3.281h-1.725a3.464,3.464,0,0,1-3.449-3.449v-6.057h-5.047v8.58a4.368,4.368,0,0,1,3.281,4.206,4.371,4.371,0,0,1-4.374,4.374A4.371,4.371,0,0,1-604.48-2539.875Zm2.145-.042a2.172,2.172,0,0,0,2.187,2.187,2.172,2.172,0,0,0,2.187-2.187,2.163,2.163,0,0,0-2.187-2.145A2.137,2.137,0,0,0-602.334-2539.916Zm15.52-4.333a2.172,2.172,0,0,0,2.187,2.187,2.2,2.2,0,0,0,2.187-2.187,2.172,2.172,0,0,0-2.187-2.187A2.172,2.172,0,0,0-586.814-2544.249Zm-31,0a2.191,2.191,0,0,0,2.145,2.187,2.208,2.208,0,0,0,2.229-2.187,2.172,2.172,0,0,0-2.187-2.187A2.2,2.2,0,0,0-617.813-2544.249Zm.883-15.941a5.349,5.349,0,0,0,5.342,5.342h21.7a6.48,6.48,0,0,0,6.477-6.477,6.48,6.48,0,0,0-6.477-6.477,5.765,5.765,0,0,0-1.43.168,1.1,1.1,0,0,1-1.22-.589,9.2,9.2,0,0,0-8.244-5.09,9.224,9.224,0,0,0-8.959,7.024,1.1,1.1,0,0,1-1.178.841c-.337-.042-.5-.084-.673-.084A5.349,5.349,0,0,0-616.93-2560.19Zm15.142,1.178a1.64,1.64,0,0,1,1.641-1.64,1.64,1.64,0,0,1,1.64,1.64,1.64,1.64,0,0,1-1.64,1.64A1.641,1.641,0,0,1-601.788-2559.012Zm3.912-2.229a3.226,3.226,0,0,0-4.5,0,1.117,1.117,0,0,1-1.556,0,1.117,1.117,0,0,1,0-1.556,5.49,5.49,0,0,1,7.571,0,1.118,1.118,0,0,1,0,1.556,1.131,1.131,0,0,1-.757.337A1.13,1.13,0,0,1-597.876-2561.241Zm2.607-2.65a7.1,7.1,0,0,0-9.758,0,1.117,1.117,0,0,1-1.556,0,1.117,1.117,0,0,1,0-1.556,9,9,0,0,1,6.435-2.65,8.868,8.868,0,0,1,6.393,2.692,1.116,1.116,0,0,1,0,1.556,1.012,1.012,0,0,1-.757.294A1.13,1.13,0,0,1-595.268-2563.891Z" transform="translate(644.8 2600.5)" fill="#6874fc"/>
</svg>
