<svg id="Group_7" data-name="Group 7" xmlns="http://www.w3.org/2000/svg" width="90" height="90" viewBox="0 0 90 90">
  <path id="Rectangle_24" data-name="Rectangle 24" d="M45,0h0A45,45,0,0,1,90,45V78.75A11.25,11.25,0,0,1,78.75,90H45A45,45,0,0,1,0,45v0A45,45,0,0,1,45,0Z" fill="#6874fc" opacity="0.1"/>
  <path id="Path_937" data-name="Path 937" d="M3.744,44.618v-40h8.075v40H3.744Zm15.776,0v-40H32.475q7.362,0,9.6.605a10.472,10.472,0,0,1,5.765,3.912,12.423,12.423,0,0,1,2.319,7.786,12.989,12.989,0,0,1-1.341,6.193,10.984,10.984,0,0,1-3.4,3.949,11.706,11.706,0,0,1-4.182,1.891,46.069,46.069,0,0,1-8.382.577H27.6V44.618H19.521ZM27.6,11.389V22.732H32.01a20.909,20.909,0,0,0,6.389-.624,5.328,5.328,0,0,0,2.524-1.965,5.411,5.411,0,0,0,.913-3.111,5.178,5.178,0,0,0-1.285-3.6,5.568,5.568,0,0,0-3.241-1.769,38.413,38.413,0,0,0-5.811-.27H27.6Z" transform="translate(18.256 20.382)" fill="#6874fc" stroke="#eff1ff" stroke-width="4"/>
</svg>
