<svg id="Group_7" data-name="Group 7" xmlns="http://www.w3.org/2000/svg" width="90" height="90" viewBox="0 0 90 90">
  <path id="Rectangle_24" data-name="Rectangle 24" d="M45,0h0A45,45,0,0,1,90,45V78.75A11.25,11.25,0,0,1,78.75,90H45A45,45,0,0,1,0,45v0A45,45,0,0,1,45,0Z" fill="#6874fc" opacity="0.1"/>
  <path id="Union_18" data-name="Union 18" d="M-2947.18-1282a1.819,1.819,0,0,1-1.82-1.819,1.819,1.819,0,0,1,1.82-1.818h1.818v-34.544a1.818,1.818,0,0,1,1.818-1.818h29.09a1.819,1.819,0,0,1,1.818,1.818v34.544h1.818a1.82,1.82,0,0,1,1.819,1.818,1.82,1.82,0,0,1-1.819,1.819Zm30.906-3.637v-32.727h-25.453v32.727h5.453v-5.454a1.818,1.818,0,0,1,1.818-1.818h10.91a1.817,1.817,0,0,1,1.818,1.818v5.454Zm-9.089,0v-3.636h-7.274v3.636Zm2.728-10.908a1.819,1.819,0,0,1-1.819-1.818,1.82,1.82,0,0,1,1.819-1.82h1.817a1.82,1.82,0,0,1,1.819,1.82,1.82,1.82,0,0,1-1.819,1.818Zm-7.272,0a1.819,1.819,0,0,1-1.819-1.818,1.819,1.819,0,0,1,1.819-1.82h1.817a1.818,1.818,0,0,1,1.818,1.82,1.818,1.818,0,0,1-1.818,1.818Zm-7.273,0a1.818,1.818,0,0,1-1.817-1.818,1.818,1.818,0,0,1,1.817-1.82h1.818a1.819,1.819,0,0,1,1.818,1.82,1.819,1.819,0,0,1-1.818,1.818Zm14.546-7.273a1.818,1.818,0,0,1-1.819-1.818,1.819,1.819,0,0,1,1.819-1.818h1.817a1.819,1.819,0,0,1,1.819,1.818,1.819,1.819,0,0,1-1.819,1.818Zm-7.272,0a1.818,1.818,0,0,1-1.819-1.818,1.818,1.818,0,0,1,1.819-1.818h1.817a1.817,1.817,0,0,1,1.818,1.818,1.817,1.817,0,0,1-1.818,1.818Zm-7.273,0a1.817,1.817,0,0,1-1.817-1.818,1.817,1.817,0,0,1,1.817-1.818h1.818a1.818,1.818,0,0,1,1.818,1.818,1.818,1.818,0,0,1-1.818,1.818Zm14.546-7.272a1.819,1.819,0,0,1-1.819-1.818,1.818,1.818,0,0,1,1.819-1.818h1.817a1.819,1.819,0,0,1,1.819,1.818,1.82,1.82,0,0,1-1.819,1.818Zm-7.272,0a1.819,1.819,0,0,1-1.819-1.818,1.818,1.818,0,0,1,1.819-1.818h1.817a1.817,1.817,0,0,1,1.818,1.818,1.818,1.818,0,0,1-1.818,1.818Zm-7.273,0a1.818,1.818,0,0,1-1.817-1.818,1.817,1.817,0,0,1,1.817-1.818h1.818a1.818,1.818,0,0,1,1.818,1.818,1.819,1.819,0,0,1-1.818,1.818Z" transform="translate(2974 1347)" fill="#6874fc" stroke="#eff1ff" stroke-width="1"/>
</svg>
