<svg id="Group_7" data-name="Group 7" xmlns="http://www.w3.org/2000/svg" width="90" height="90" viewBox="0 0 90 90">
  <path id="Rectangle_24" data-name="Rectangle 24" d="M45,0h0A45,45,0,0,1,90,45V78.75A11.25,11.25,0,0,1,78.75,90H45A45,45,0,0,1,0,45v0A45,45,0,0,1,45,0Z" fill="#6874fc" opacity="0.1"/>
  <path id="Union_3" data-name="Union 3" d="M-983.389-2117.109a6.361,6.361,0,0,1-5.576-5.618,6.333,6.333,0,0,1,4.658-6.792.239.239,0,0,0,.181-.231v-.966a8.773,8.773,0,0,1,8.773-8.773h14.622a5.849,5.849,0,0,0,5.849-5.849v-1.706a.244.244,0,0,0-.243-.244h-2.922a.975.975,0,0,1-.84-1.471l4.628-7.832a.975.975,0,0,1,1.679,0l4.628,7.832a.975.975,0,0,1-.839,1.471h-2.922a.244.244,0,0,0-.244.244v1.706a8.773,8.773,0,0,1-8.773,8.773h-14.622a5.849,5.849,0,0,0-5.849,5.849v.965a.241.241,0,0,0,.181.232,6.333,6.333,0,0,1,4.693,6.114,6.336,6.336,0,0,1-6.336,6.336A6.576,6.576,0,0,1-983.389-2117.109Zm-2.687-6.3a3.416,3.416,0,0,0,3.412,3.412,3.416,3.416,0,0,0,3.412-3.412,3.416,3.416,0,0,0-3.412-3.412A3.416,3.416,0,0,0-986.076-2123.4Zm30.539.925-2.585-2.584a.244.244,0,0,0-.345,0l-2.585,2.584a.974.974,0,0,1-1.378,0l-.689-.689a.974.974,0,0,1,0-1.378l2.585-2.585a.243.243,0,0,0,0-.344l-2.585-2.585a.974.974,0,0,1,0-1.378l.689-.689a.975.975,0,0,1,1.378,0l2.585,2.585a.245.245,0,0,0,.345,0l2.585-2.585a.974.974,0,0,1,1.378,0l.689.689a.975.975,0,0,1,0,1.378l-2.585,2.585a.243.243,0,0,0,0,.344l2.585,2.585a.975.975,0,0,1,0,1.378l-.689.689a.972.972,0,0,1-.689.286A.971.971,0,0,1-955.537-2122.479Zm-19.5-21.446-2.585-2.585a.243.243,0,0,0-.344,0l-2.585,2.585a.975.975,0,0,1-1.379,0l-.689-.689a.975.975,0,0,1,0-1.378l2.585-2.584a.244.244,0,0,0,0-.345l-2.585-2.584a.975.975,0,0,1,0-1.379l.689-.689a.976.976,0,0,1,1.379,0l2.585,2.585a.244.244,0,0,0,.344,0l2.585-2.585a.974.974,0,0,1,1.378,0l.689.689a.975.975,0,0,1,0,1.379l-2.585,2.584a.244.244,0,0,0,0,.345l2.585,2.584a.974.974,0,0,1,0,1.378l-.689.689a.972.972,0,0,1-.689.285A.971.971,0,0,1-975.033-2143.925Z" transform="translate(1013.001 2182.068)" fill="#6874fc"/>
</svg>
