<svg id="Group_7" data-name="Group 7" xmlns="http://www.w3.org/2000/svg" width="90" height="90" viewBox="0 0 90 90">
  <path id="Rectangle_24" data-name="Rectangle 24" d="M45,0h0A45,45,0,0,1,90,45V78.75A11.25,11.25,0,0,1,78.75,90H45A45,45,0,0,1,0,45v0A45,45,0,0,1,45,0Z" fill="#6874fc" opacity="0.1"/>
  <path id="Union_9" data-name="Union 9" d="M-640.9-2630.384q-.861-.684-1.723-1.49h0q-.86.8-1.723,1.49c-3.755,2.982-7.117,3.876-9.467,2.52s-3.256-4.716-2.551-9.458q.162-1.088.428-2.237h0q-1.127-.344-2.152-.748c-4.459-1.761-6.915-4.225-6.915-6.939s2.457-5.178,6.915-6.938q1.023-.4,2.151-.748h0q-.265-1.148-.428-2.238c-.7-4.742.2-8.1,2.552-9.458s5.713-.461,9.466,2.52q.861.684,1.724,1.49.86-.8,1.724-1.49c3.754-2.981,7.116-3.877,9.466-2.52s3.256,4.716,2.552,9.458q-.162,1.088-.428,2.238h0q1.126.345,2.151.748c4.46,1.76,6.915,4.224,6.915,6.938s-2.456,5.178-6.915,6.939c-.682.269-1.4.519-2.152.748h0q.265,1.147.428,2.238c.706,4.742-.2,8.1-2.551,9.458a4.749,4.749,0,0,1-2.413.618C-635.864-2627.246-638.285-2628.311-640.9-2630.384Zm1.319-1.66a13.656,13.656,0,0,0,4.252,2.435,3.531,3.531,0,0,0,2.836-.091,3.532,3.532,0,0,0,1.5-2.411,13.66,13.66,0,0,0,.018-4.9q-.145-.971-.379-1.995a44.465,44.465,0,0,1-5.942.98,44.433,44.433,0,0,1-3.82,4.656Q-640.348-2632.655-639.578-2632.044Zm-14.687-4.967a13.659,13.659,0,0,0,.018,4.9,3.532,3.532,0,0,0,1.5,2.411,3.531,3.531,0,0,0,2.836.091,13.656,13.656,0,0,0,4.252-2.435q.768-.611,1.538-1.326a44.425,44.425,0,0,1-3.82-4.656,44.6,44.6,0,0,1-5.942-.98Q-654.12-2637.984-654.264-2637.01Zm11.645,2.148c.857-.906,1.7-1.9,2.529-2.962q-1.25.058-2.529.057c-.851,0-1.7-.019-2.53-.057C-644.322-2636.761-643.476-2635.769-642.619-2634.863Zm0-5.025c1.412,0,2.8-.054,4.154-.163.77-1.117,1.512-2.293,2.218-3.516s1.354-2.454,1.937-3.678h0c-.582-1.226-1.23-2.457-1.937-3.68s-1.448-2.4-2.217-3.517c-1.352-.108-2.743-.163-4.155-.163s-2.8.055-4.155.162c-.769,1.118-1.511,2.294-2.218,3.518s-1.354,2.455-1.937,3.68c.583,1.224,1.231,2.455,1.937,3.678s1.449,2.4,2.219,3.517C-645.421-2639.942-644.031-2639.887-642.619-2639.887Zm-6.895-.458q-.675-1.054-1.314-2.162t-1.215-2.219c-.509,1.248-.944,2.477-1.3,3.672C-652.131-2640.766-650.849-2640.529-649.514-2640.345Zm15.1-2.162q-.639,1.106-1.314,2.161c1.335-.183,2.617-.42,3.83-.709-.356-1.195-.792-2.424-1.3-3.672Q-633.771-2643.614-634.411-2642.507Zm-22.9-9.707a13.661,13.661,0,0,0-4.235,2.465,3.532,3.532,0,0,0-1.339,2.5,3.532,3.532,0,0,0,1.339,2.5,13.663,13.663,0,0,0,4.235,2.465q.914.36,1.917.669h0a44.544,44.544,0,0,1,2.123-5.635h0a44.547,44.547,0,0,1-2.123-5.636Q-656.391-2652.575-657.306-2652.213Zm27.456,10.6h0q1-.308,1.917-.669a13.656,13.656,0,0,0,4.235-2.465,3.532,3.532,0,0,0,1.339-2.5,3.531,3.531,0,0,0-1.339-2.5,13.657,13.657,0,0,0-4.235-2.465q-.913-.36-1.917-.669a44.522,44.522,0,0,1-2.123,5.636h0A44.567,44.567,0,0,1-629.85-2641.61Zm-4.56-10.375q.639,1.106,1.214,2.22h0c.509-1.248.945-2.478,1.3-3.672-1.213-.289-2.5-.526-3.831-.71h0Q-635.05-2653.092-634.411-2651.985Zm-17.632,2.22h0q.575-1.112,1.214-2.22t1.316-2.162h0c-1.335.184-2.618.421-3.831.709C-652.987-2652.243-652.552-2651.014-652.043-2649.765Zm14.747-6.7a44.541,44.541,0,0,1,5.942.979h0q.235-1.022.379-2a13.659,13.659,0,0,0-.018-4.9,3.531,3.531,0,0,0-1.5-2.411,3.53,3.53,0,0,0-2.836-.091,13.657,13.657,0,0,0-4.252,2.435q-.768.611-1.538,1.326h0a44.562,44.562,0,0,1,3.818,4.656h0Zm-15.454-8.327a3.531,3.531,0,0,0-1.5,2.411,13.659,13.659,0,0,0-.018,4.9q.145.971.379,2h0a44.532,44.532,0,0,1,5.941-.979h0a44.544,44.544,0,0,1,3.818-4.656h0q-.768-.714-1.538-1.326a13.655,13.655,0,0,0-4.252-2.435,5.067,5.067,0,0,0-1.471-.245A2.683,2.683,0,0,0-652.75-2664.793Zm12.661,8.126h0c-.827-1.064-1.673-2.057-2.53-2.963-.857.906-1.7,1.9-2.53,2.963h0q1.252-.058,2.531-.058C-641.768-2656.725-640.923-2656.7-640.089-2656.666Zm-6.736,9.42a4.206,4.206,0,0,1,4.206-4.206,4.206,4.206,0,0,1,4.206,4.206,4.207,4.207,0,0,1-4.206,4.207A4.206,4.206,0,0,1-646.825-2647.246Z" transform="translate(687.544 2692.205)" fill="#6874fc"/>
</svg>
