<svg id="Group_7" data-name="Group 7" xmlns="http://www.w3.org/2000/svg" width="90" height="90" viewBox="0 0 90 90">
  <path id="Rectangle_24" data-name="Rectangle 24" d="M45,0h0A45,45,0,0,1,90,45V78.75A11.25,11.25,0,0,1,78.75,90H45A45,45,0,0,1,0,45v0A45,45,0,0,1,45,0Z" fill="#6874fc" opacity="0.1"/>
  <path id="Union_19" data-name="Union 19" d="M-2989-1679a20,20,0,0,1,20-20,20,20,0,0,1,20,20,20,20,0,0,1-20,20A20,20,0,0,1-2989-1679Zm3.636,0A16.353,16.353,0,0,0-2969-1662.637,16.353,16.353,0,0,0-2952.636-1679,16.353,16.353,0,0,0-2969-1695.364,16.353,16.353,0,0,0-2985.364-1679Zm11.864,7.727-6.455-6.409a1.81,1.81,0,0,1,0-2.591,1.811,1.811,0,0,1,2.591,0l5.136,5.137,11.591-11.592a1.841,1.841,0,0,1,2.546,0,1.813,1.813,0,0,1,0,2.592l-12.863,12.863a1.8,1.8,0,0,1-1.273.545A1.793,1.793,0,0,1-2973.5-1671.273Z" transform="translate(3014 1724)" fill="#6874fc" stroke="#fff" stroke-width="0.4"/>
</svg>
