<svg id="Group_7" data-name="Group 7" xmlns="http://www.w3.org/2000/svg" width="90" height="90" viewBox="0 0 90 90">
  <path id="Rectangle_24" data-name="Rectangle 24" d="M45,0h0A45,45,0,0,1,90,45V78.75A11.25,11.25,0,0,1,78.75,90H45A45,45,0,0,1,0,45v0A45,45,0,0,1,45,0Z" fill="#6874fc" opacity="0.1"/>
  <path id="Path_932" data-name="Path 932" d="M32.027,972.039a8.92,8.92,0,0,0-8.941,8.886,8.8,8.8,0,0,0,1.6,5.083,12.835,12.835,0,0,0-2.245,1.577,9.446,9.446,0,0,0-.835-.538,6.518,6.518,0,0,0,1-3.469,6.7,6.7,0,0,0-13.393,0,6.518,6.518,0,0,0,1,3.469,9.116,9.116,0,0,0-4.415,8v3.636a1.62,1.62,0,0,0,.742,1.131c4.494,3.156,7.849,3.678,11.835,2.968l.018.018c11.41,9.117,22.442,4.5,27.325-.018a15.757,15.757,0,0,0,11.854-3.005,1.3,1.3,0,0,0,.7-1.28v-3.45a9.112,9.112,0,0,0-4.415-8.014,6.507,6.507,0,0,0,1-3.45,6.687,6.687,0,0,0-13.375,0,6.509,6.509,0,0,0,.983,3.45,9.77,9.77,0,0,0-.835.538,12.918,12.918,0,0,0-2.245-1.558,8.8,8.8,0,0,0,1.614-5.083,8.939,8.939,0,0,0-8.978-8.886Zm0,2.375a6.52,6.52,0,0,1,6.6,6.511,6.712,6.712,0,0,1-6.6,6.53,6.521,6.521,0,1,1,0-13.041Zm-16.12,4.879a4.267,4.267,0,1,1,0,8.533c-2.425-.148-4.283-1.645-4.322-4.248A4.278,4.278,0,0,1,15.907,979.292Zm32.259,0a4.267,4.267,0,1,1,0,8.533,4.2,4.2,0,0,1-4.3-4.248A4.263,4.263,0,0,1,48.166,979.292Zm-21.8,8.5a8.912,8.912,0,0,0,5.658,2.041,9.018,9.018,0,0,0,5.695-2.022,9.7,9.7,0,0,1,5.732,9.312v4.508c-7.7,5.251-15.048,5.259-22.835-.037v-4.471a9.7,9.7,0,0,1,5.751-9.331Zm-6.4,1.039a7.383,7.383,0,0,1,.816.519,12.549,12.549,0,0,0-2.541,7.773v3.265c-3.349.7-6.623-.047-10.073-2.337v-3.005a6.474,6.474,0,0,1,3.692-6.2,6.707,6.707,0,0,0,8.106-.019Zm24.153,0a6.643,6.643,0,0,0,8.088,0,6.489,6.489,0,0,1,3.691,6.214v2.987c-3.457,2.308-6.747,3.054-10.073,2.374v-3.283a12.549,12.549,0,0,0-2.541-7.791,8,8,0,0,1,.835-.5Z" transform="translate(13 -945.039)" fill="#6874fc" fill-rule="evenodd"/>
</svg>
