<svg id="Group_7" data-name="Group 7" xmlns="http://www.w3.org/2000/svg" width="90" height="90" viewBox="0 0 90 90">
  <path id="Rectangle_24" data-name="Rectangle 24" d="M45,0h0A45,45,0,0,1,90,45V78.75A11.25,11.25,0,0,1,78.75,90H45A45,45,0,0,1,0,45v0A45,45,0,0,1,45,0Z" fill="#6874fc" opacity="0.1"/>
  <path id="Path_933" data-name="Path 933" d="M41.069,21a19.849,19.849,0,0,1,14.021,5.911A19.609,19.609,0,0,1,61,41.069a19.3,19.3,0,0,1-5.911,14.021A19.3,19.3,0,0,1,41.069,61a19.609,19.609,0,0,1-14.158-5.911A19.849,19.849,0,0,1,21,41.069,20.181,20.181,0,0,1,41.069,21ZM25.261,39.969a1.012,1.012,0,0,1,1.1,1.1,1.084,1.084,0,0,1-1.1,1.1H23.337a18.21,18.21,0,0,0,5.086,11.409A17.7,17.7,0,0,0,39.969,58.8V56.739a1.084,1.084,0,0,1,1.1-1.1,1.183,1.183,0,0,1,1.1,1.1V58.8A18,18,0,0,0,58.8,42.168H56.739a1.183,1.183,0,0,1-1.1-1.1,1.084,1.084,0,0,1,1.1-1.1H58.8a17.7,17.7,0,0,0-5.223-11.546,18.21,18.21,0,0,0-11.409-5.086v1.924a1.084,1.084,0,0,1-1.1,1.1,1.012,1.012,0,0,1-1.1-1.1V23.337a18.246,18.246,0,0,0-11.546,5.086,18.246,18.246,0,0,0-5.086,11.546Zm14.708-9.485a1.084,1.084,0,0,1,1.1-1.1,1.183,1.183,0,0,1,1.1,1.1v9.485h5.223a1.012,1.012,0,0,1,1.1,1.1,1.084,1.084,0,0,1-1.1,1.1H41.069a1.084,1.084,0,0,1-1.1-1.1Z" transform="translate(4 4)" fill="#6874fc"/>
</svg>
