<svg id="Group_7" data-name="Group 7" xmlns="http://www.w3.org/2000/svg" width="90" height="90" viewBox="0 0 90 90">
  <path id="Rectangle_24" data-name="Rectangle 24" d="M45,0h0A45,45,0,0,1,90,45V78.75A11.25,11.25,0,0,1,78.75,90H45A45,45,0,0,1,0,45v0A45,45,0,0,1,45,0Z" fill="#6874fc" opacity="0.1"/>
  <path id="Path_831" data-name="Path 831" d="M43.122,11.3,35.7,3.878a1.29,1.29,0,0,0-1.825,0L23.211,14.54,13.156,4.486a1.289,1.289,0,0,0-1.825,0L4.483,11.331a1.29,1.29,0,0,0,0,1.825L14.54,23.214,3.878,33.875a1.289,1.289,0,0,0,0,1.825L11.3,43.122a1.29,1.29,0,0,0,1.825,0L23.788,32.46,30.928,39.6a1.3,1.3,0,0,0,.543.324l9.763,2.915a1.29,1.29,0,0,0,1.605-1.605l-2.915-9.764a1.286,1.286,0,0,0-.324-.543l-7.142-7.141L43.122,13.126A1.289,1.289,0,0,0,43.122,11.3ZM12.243,7.223l2.632,2.632L9.852,14.878,7.219,12.245Zm-.031,33.163-5.6-5.6,1.649-1.649L12.2,37.072,13.565,35.7,9.633,31.77l2.55-2.548,2.445,2.444L16,30.3l-2.445-2.444,2.814-2.815,5.6,5.6Zm-.991-24.139,5.023-5.023L37.092,32.068l-5.025,5.026Zm28.463,23.44-5.754-1.719,4.036-4.035Zm-9.05-17.723-5.6-5.6,2.814-2.813L30.3,16l1.369-1.369L29.22,12.183l2.55-2.551L35.7,13.563l1.369-1.369-3.933-3.93,1.65-1.65,5.6,5.6Z" transform="translate(22 21.5)" fill="#6874fc"/>
</svg>
