<svg xmlns="http://www.w3.org/2000/svg" width="60" height="60" viewBox="0 0 60 60">
  <path id="Union_11" data-name="Union 11" d="M-2096-2180.5a30.027,30.027,0,0,1,30-30,30.027,30.027,0,0,1,30,30,30.027,30.027,0,0,1-30,30A30.027,30.027,0,0,1-2096-2180.5Zm5.558,0A24.5,24.5,0,0,0-2066-2156.058a24.5,24.5,0,0,0,24.442-24.442A24.5,24.5,0,0,0-2066-2204.942,24.5,24.5,0,0,0-2090.442-2180.5Zm9.726,9.6a2.8,2.8,0,0,1,.442-3.916,2.8,2.8,0,0,1,3.916.442,13.785,13.785,0,0,0,10.358,4.421,13.787,13.787,0,0,0,10.358-4.421,2.8,2.8,0,0,1,3.916-.379,2.724,2.724,0,0,1,.442,3.853,19.576,19.576,0,0,1-14.716,6.505A19.656,19.656,0,0,1-2080.716-2170.9Zm20.779-16.421a3.852,3.852,0,0,1,3.852-3.853,3.852,3.852,0,0,1,3.853,3.853,3.853,3.853,0,0,1-3.853,3.853A3.853,3.853,0,0,1-2059.937-2187.321Zm-19.832,0a3.852,3.852,0,0,1,3.853-3.853,3.852,3.852,0,0,1,3.852,3.853,3.853,3.853,0,0,1-3.852,3.853A3.853,3.853,0,0,1-2079.768-2187.321Z" transform="translate(2096 2210.5)" fill="#cdceff"/>
</svg>
