<svg xmlns="http://www.w3.org/2000/svg" width="90.242" height="80" viewBox="0 0 90.242 80">
  <path id="Union_14" data-name="Union 14" d="M-1370.475-3092.943a2.278,2.278,0,0,1-1.121-2.243l2.307-15.191a4.02,4.02,0,0,1,.577-1.505l26.375-45.538a5.926,5.926,0,0,1,5.159-3.044,6.023,6.023,0,0,1,3.012.833l3.429,2.019a6.005,6.005,0,0,1,2.211,8.14l-.544.9,1.634.961c3.755,2.184,3.422,4.916,2.019,7.595l-10.03,17.4a2.373,2.373,0,0,1-3.108.833,2.369,2.369,0,0,1-.833-3.108l10.063-17.369a.942.942,0,0,0-.385-1.41l-1.635-.962-23.681,40.891a2.635,2.635,0,0,1-.674.865l-12.242,9.775a2.237,2.237,0,0,1-1.38.459A2.325,2.325,0,0,1-1370.475-3092.943Zm33.168-63.034a1.331,1.331,0,0,0-1.121.8l-24.163,41.756a15.128,15.128,0,0,1,3.269,1.442,15.6,15.6,0,0,1,2.724,1.923l24.131-41.692c.438-.793.326-1.327-.545-1.922l-3.43-2.02a1.827,1.827,0,0,0-.861-.288Zm-64.285,49.351a11.21,11.21,0,0,1-8.524-3.589A11.719,11.719,0,0,1-1413-3118a11.638,11.638,0,0,1,2.884-7.755,10,10,0,0,1,1.442-1.347,9.926,9.926,0,0,1-1.442-1.346,11.718,11.718,0,0,1-2.884-7.787,11.638,11.638,0,0,1,2.884-7.756,10.016,10.016,0,0,1,1.442-1.345,10,10,0,0,1-1.442-1.347,11.718,11.718,0,0,1-2.884-7.787,11.637,11.637,0,0,1,2.884-7.755,11.23,11.23,0,0,1,8.524-3.622h7.916v-4.519a2.355,2.355,0,0,1,2.051-2.275c.07,0,.121,0,.192,0h23.073a2.372,2.372,0,0,1,2.275,2.275v4.519h41.051a2.379,2.379,0,0,1,2.244,2.276,2.348,2.348,0,0,1-2.244,2.243h-41.051v13.716h11.569a2.38,2.38,0,0,1,2.244,2.276,2.349,2.349,0,0,1-2.244,2.243h-11.569v6.441a2.352,2.352,0,0,1-1.282,2.051,2.3,2.3,0,0,1-2.371-.256l-10.159-7.627-10.191,7.627a2.289,2.289,0,0,1-2.339.224,2.329,2.329,0,0,1-1.25-2.02v-6.441h-7.916a6.444,6.444,0,0,0-5.159,2.083,7.234,7.234,0,0,0-1.7,4.775,7.232,7.232,0,0,0,1.7,4.774,6.441,6.441,0,0,0,5.159,2.083h35.924a2.378,2.378,0,0,1,2.243,2.275,2.349,2.349,0,0,1-2.243,2.244h-35.924a6.445,6.445,0,0,0-5.159,2.083,7.235,7.235,0,0,0-1.7,4.775,7.232,7.232,0,0,0,1.7,4.774,6.441,6.441,0,0,0,5.159,2.083h26.695a2.349,2.349,0,0,1,2.211,2.275,2.32,2.32,0,0,1-2.211,2.244Zm23.073-40.474,7.884,5.928v-26.918h-18.523v26.918l7.916-5.928a2.272,2.272,0,0,1,1.362-.439A2.272,2.272,0,0,1-1378.518-3147.1Zm-28.232-12.146a7.236,7.236,0,0,0-1.7,4.775,7.233,7.233,0,0,0,1.7,4.774,6.443,6.443,0,0,0,5.159,2.083h7.916v-13.716h-7.916A6.445,6.445,0,0,0-1406.751-3159.247Zm59.951,52.618a2.264,2.264,0,0,1-2.268-2.261,2.265,2.265,0,0,1,2.268-2.262h21.775a2.265,2.265,0,0,1,2.268,2.262,2.265,2.265,0,0,1-2.268,2.262Z" transform="translate(1413 3172.644)" fill="#6874fc"/>
</svg>
