<svg xmlns="http://www.w3.org/2000/svg" width="85.333" height="80" viewBox="0 0 85.333 80">
  <path id="Union_12" data-name="Union 12" d="M-613.155-3946.826a8.342,8.342,0,0,1-8.334-8.333v-43.333a8.342,8.342,0,0,1,8.334-8.333h12.666v-10a10.011,10.011,0,0,1,10-10h23.334a10.011,10.011,0,0,1,10,10v10h12.666a8.342,8.342,0,0,1,8.334,8.333v43.333a8.342,8.342,0,0,1-8.334,8.333Zm66-3.333h2.666a5.005,5.005,0,0,0,5-5v-43.333a5.006,5.006,0,0,0-5-5h-2.666Zm-6.666-31.667v31.667h3.333v-53.333h-3.333v8.333a1.667,1.667,0,0,1-1.667,1.667,1.667,1.667,0,0,1-1.666-1.667v-8.333h-43.334v8.333a1.667,1.667,0,0,1-1.666,1.667,1.667,1.667,0,0,1-1.666-1.667v-8.333h-3.334v53.333h3.334v-31.667a1.666,1.666,0,0,1,1.666-1.667,1.666,1.666,0,0,1,1.666,1.667v31.667h43.334v-31.667a1.666,1.666,0,0,1,1.666-1.667A1.667,1.667,0,0,1-553.822-3981.826Zm-64.333-16.667v43.333a5.005,5.005,0,0,0,5,5h2.666v-53.333h-2.666A5.006,5.006,0,0,0-618.155-3998.492Zm49.333-21.667a5.006,5.006,0,0,1,5,5v8.333h3.333v-10a6.674,6.674,0,0,0-6.666-6.667h-23.334a6.674,6.674,0,0,0-6.666,6.667v10h3.334v-8.333a5.005,5.005,0,0,1,5-5Zm-21.667,5v8.333h23.334v-8.333a1.668,1.668,0,0,0-1.666-1.667h-20A1.669,1.669,0,0,0-590.489-4015.159Zm6.667,55a1.667,1.667,0,0,1-1.667-1.667v-8.333h-8.333a1.667,1.667,0,0,1-1.667-1.667v-10a1.667,1.667,0,0,1,1.667-1.667h8.333v-8.333a1.667,1.667,0,0,1,1.667-1.667h10a1.666,1.666,0,0,1,1.666,1.667v8.333h8.334a1.666,1.666,0,0,1,1.666,1.667v10a1.666,1.666,0,0,1-1.666,1.667h-8.334v8.333a1.666,1.666,0,0,1-1.666,1.667Zm-8.334-13.333h8.334a1.666,1.666,0,0,1,1.666,1.667v8.333h6.666v-8.333a1.667,1.667,0,0,1,1.667-1.667h8.333v-6.667h-8.333a1.667,1.667,0,0,1-1.667-1.667v-8.333h-6.666v8.333a1.666,1.666,0,0,1-1.666,1.667h-8.334Zm35-15a1.668,1.668,0,0,1,1.666-1.667,1.668,1.668,0,0,1,1.667,1.667,1.668,1.668,0,0,1-1.667,1.667A1.667,1.667,0,0,1-557.155-3988.492Zm-46.666,0a1.668,1.668,0,0,1,1.666-1.667,1.668,1.668,0,0,1,1.666,1.667,1.667,1.667,0,0,1-1.666,1.667A1.667,1.667,0,0,1-603.822-3988.492Z" transform="translate(621.489 4026.826)" fill="#6874fc"/>
</svg>
