<svg xmlns="http://www.w3.org/2000/svg" width="65.004" height="60" viewBox="0 0 65.004 60">
  <path id="Union_10" data-name="Union 10" d="M8.116,60A8.125,8.125,0,0,1,0,51.884V18.825a8.125,8.125,0,0,1,8.116-8.116H18.474V7.042A7.049,7.049,0,0,1,25.515,0H39.488A7.05,7.05,0,0,1,46.53,7.042v3.667H56.888A8.126,8.126,0,0,1,65,18.825V51.884A8.126,8.126,0,0,1,56.887,60ZM4.333,51.884a3.787,3.787,0,0,0,3.783,3.783H56.888a3.787,3.787,0,0,0,3.783-3.783V28.829a25.99,25.99,0,0,1-2.985,2.653,2.167,2.167,0,1,1-2.619-3.452,17.846,17.846,0,0,0,5.6-6.686V18.825a3.787,3.787,0,0,0-3.783-3.783H8.116a3.787,3.787,0,0,0-3.783,3.783V21.33c2.835,6.311,11.081,11.263,21.143,12.846a4.415,4.415,0,0,1,4.317-3.515H35.21a4.416,4.416,0,0,1,4.32,3.523A41.1,41.1,0,0,0,45.6,32.774a2.167,2.167,0,1,1,1.31,4.131,45.474,45.474,0,0,1-7.3,1.645V41.3a4.414,4.414,0,0,1-4.409,4.409H29.793A4.413,4.413,0,0,1,25.385,41.3V38.557C16.619,37.3,9.1,33.767,4.333,28.847ZM29.718,35.07V41.3a.076.076,0,0,0,.075.076H35.21a.076.076,0,0,0,.075-.076V37.306a2.106,2.106,0,0,1,0-1.312V35.07a.076.076,0,0,0-.075-.075H29.793A.076.076,0,0,0,29.718,35.07ZM22.807,7.042v3.667H42.2V7.042a2.711,2.711,0,0,0-2.708-2.709H25.515A2.712,2.712,0,0,0,22.807,7.042ZM49.352,33.79a2.166,2.166,0,0,1,1-2.9c.171-.082.342-.168.51-.254A2.167,2.167,0,0,1,52.826,34.5c-.191.1-.383.192-.577.287a2.166,2.166,0,0,1-2.9-1Z" fill="#cdceff"/>
</svg>
