<svg xmlns="http://www.w3.org/2000/svg" width="78.573" height="80" viewBox="0 0 78.573 80">
  <path id="Union_16" data-name="Union 16" d="M-149.134-4280a4.873,4.873,0,0,1-4.866-4.869v-36.582a4.877,4.877,0,0,1,3.285-4.6v-4.6A3.756,3.756,0,0,1-149-4333.8v-19.979a6.224,6.224,0,0,1,6.215-6.219h3.359a2.856,2.856,0,0,1,2.855,2.85v23.351a3.808,3.808,0,0,1,.432.328,31.872,31.872,0,0,1,26.354-13.929,31.956,31.956,0,0,1,31.909,31.931,31.88,31.88,0,0,1-12.3,25.194h13.143a1.6,1.6,0,0,1,1.6,1.6v3.537A5.14,5.14,0,0,1-80.558-4280h-68.576Zm-1.666-41.45v36.582a1.67,1.67,0,0,0,1.666,1.669h12.694a1.671,1.671,0,0,0,1.669-1.668v-11.309s0,0,0,0v-25.269a1.675,1.675,0,0,0-.01-.183c0-.012,0-.022-.005-.034-.007-.049-.015-.1-.026-.147,0-.013-.007-.025-.01-.038-.012-.046-.025-.092-.04-.137,0-.014-.01-.027-.015-.041-.016-.044-.035-.087-.054-.129a1.669,1.669,0,0,0-1.508-.958h-12.694A1.669,1.669,0,0,0-150.8-4321.449Zm19.229,36.581h0v0c0,.078,0,.156-.006.233,0,.026,0,.052-.005.079,0,.051-.007.1-.012.154,0,.03-.007.061-.01.091-.005.046-.011.093-.018.139s-.01.063-.015.094-.015.089-.024.134-.012.063-.019.094-.02.089-.03.133-.015.06-.022.089c-.013.047-.026.093-.04.14-.008.026-.015.052-.023.078q-.033.1-.069.2l0,0h51.307a1.936,1.936,0,0,0,1.931-1.937h0v-1.937h-52.944Zm0-5.406h2.182q-1.132-.883-2.182-1.869Zm48.245-25.194a26.519,26.519,0,0,1-18.326,25.194h5.678a28.692,28.692,0,0,0,14.9-25.194,28.752,28.752,0,0,0-28.709-28.731,28.683,28.683,0,0,0-25.074,14.741v3.4l.028.011c.105.037.209.077.311.121l.042.019c.094.042.187.086.278.134l.043.021a26.762,26.762,0,0,1,8.559-10.94,26.2,26.2,0,0,1,15.814-5.255A26.5,26.5,0,0,1-83.326-4315.467Zm-48.245,18.7a28.669,28.669,0,0,0,7.98,6.489h5.7a26.606,26.606,0,0,1-13.68-10.184Zm-.235-26.177q.05.155.09.314c0,.017.008.034.012.051.025.1.046.208.064.313,0,.015.005.029.008.043.018.114.032.229.042.344,0,.015,0,.03,0,.044s0,.021,0,.031c.008.116.014.233.014.351v14.123a23.314,23.314,0,0,0,21.787,15.133,23.292,23.292,0,0,0,23.258-23.275,23.293,23.293,0,0,0-23.258-23.275A23.144,23.144,0,0,0-131.805-4322.94Zm-15.71-7.708v4.331h9.457v-4.331a.563.563,0,0,0-.552-.556h-8.353A.563.563,0,0,0-147.515-4330.648Zm1.717-23.131v19.375h6.029V-4356.8h-3.014A3.02,3.02,0,0,0-145.8-4353.78Zm28.608,35.552a1.594,1.594,0,0,1-.337-.982,1.6,1.6,0,0,1,.617-1.264l11.545-8.987a1.6,1.6,0,0,1,2.245.279,1.594,1.594,0,0,1,.338.982,1.6,1.6,0,0,1-.617,1.263l-11.545,8.988a1.6,1.6,0,0,1-.982.337A1.6,1.6,0,0,1-117.191-4318.228Zm-1.335-5.8a1.593,1.593,0,0,1-.338-.981,1.6,1.6,0,0,1,.617-1.264l6.737-5.25a1.6,1.6,0,0,1,2.246.279,1.591,1.591,0,0,1,.338.981,1.6,1.6,0,0,1-.617,1.264l-6.737,5.25a1.6,1.6,0,0,1-.983.338A1.6,1.6,0,0,1-118.526-4324.028Z" transform="translate(154 4359.999)" fill="#6874fc"/>
</svg>
