<svg xmlns="http://www.w3.org/2000/svg" width="80" height="80" viewBox="0 0 80 80">
  <path id="Union_13" data-name="Union 13" d="M-1419-4214a1.665,1.665,0,0,1-1.667-1.665V-4224h-20v8.334a1.667,1.667,0,0,1-1.667,1.665H-1449a1.665,1.665,0,0,1-1.667-1.665v-1.667h-5a1.668,1.668,0,0,1-1.667-1.667v-20a1.667,1.667,0,0,1,1.667-1.667h5v-1.667A1.666,1.666,0,0,1-1449-4244h6.667a1.667,1.667,0,0,1,1.667,1.666V-4234h20v-8.334A1.666,1.666,0,0,1-1419-4244h6.667a1.667,1.667,0,0,1,1.667,1.666v1.667h5A1.667,1.667,0,0,1-1404-4239v20a1.667,1.667,0,0,1-1.667,1.667h-5v1.667a1.667,1.667,0,0,1-1.667,1.665Zm1.667-3.332H-1414v-23.335h-3.334v23.335Zm-30,0H-1444v-23.335h-3.334v23.335Zm36.667-3.333h3.332v-16.668h-3.332Zm-43.335,0h3.333v-16.668H-1454Zm13.334-6.667h20v-3.334h-20Zm-35,13.333a8.342,8.342,0,0,1-8.334-8.333V-4274c0-9.38,6.9-12.622,11.667-13.225v-5.109a1.666,1.666,0,0,1,1.667-1.667h13.333a1.666,1.666,0,0,1,1.667,1.667v5.109c4.771.6,11.668,3.844,11.668,13.225v26.667h-3.334V-4274c0-9.659-8.982-10-10-10h-13.333c-1.024,0-10,.342-10,10v10h30v3.333h-30v3.333h30V-4254h-30v3.334h30v3.334h-30V-4224h20v3.334h-19.715a5,5,0,0,0,4.716,3.333h15V-4214Zm6.667-73.333h10v-3.334h-10Zm35,50v-25a1.668,1.668,0,0,1,1.667-1.667h5v-4.309l-12.846-12.846,2.358-2.356,13.333,13.332A1.668,1.668,0,0,1-1424-4269v5h18.333a1.667,1.667,0,0,1,1.667,1.667V-4244h-3.334v-6.667H-1414V-4254h6.665v-6.667H-1424v10h-3.334v-10h-3.333v23.333Zm13.334-13.332V-4254h3.333v3.334Z" transform="translate(1484 4294)" fill="#6874fc"/>
</svg>
