<svg xmlns="http://www.w3.org/2000/svg" width="67.003" height="80" viewBox="0 0 67.003 80">
  <path id="Union_15" data-name="Union 15" d="M-275.839-3926.087v-4.525a2.469,2.469,0,0,1,1.308-2.18l16.354-8.719a2.467,2.467,0,0,0,1.275-1.785l2.189-13.466a1.392,1.392,0,0,0-.322-1.135,1.406,1.406,0,0,0-1.451-.455,1.4,1.4,0,0,0-1.017,1.13l-1.687,9.871a4.933,4.933,0,0,1-2.92,3.7l-10.282,4.41a2.464,2.464,0,0,1-.971.2h-17.587a4.114,4.114,0,0,0-4.113,4.114v8.844a2.468,2.468,0,0,1-2.468,2.467,2.468,2.468,0,0,1-2.468-2.467v-8.844a9.05,9.05,0,0,1,9.049-9.049h17.044l9.872-4.212,1.67-9.863a6.325,6.325,0,0,1,4.269-4.935v-6.285h-12.75a7.4,7.4,0,0,1-7.4-7.4v-19.537a7.4,7.4,0,0,1,7.4-7.4h30.437a7.4,7.4,0,0,1,5.24,2.166,7.4,7.4,0,0,1,2.171,5.238v19.537a7.4,7.4,0,0,1-7.4,7.4h-12.75v6.737a6.309,6.309,0,0,1,3.29,6.581l-2.171,13.459a7.445,7.445,0,0,1-3.825,5.347l-15.046,8.02v3.044a2.468,2.468,0,0,1-2.468,2.467A2.467,2.467,0,0,1-275.839-3926.087Zm22.68-51.62v3.5h12.75a2.468,2.468,0,0,0,2.468-2.468v-19.537a2.468,2.468,0,0,0-2.468-2.468h-30.437a2.468,2.468,0,0,0-2.468,2.468v19.537a2.468,2.468,0,0,0,2.468,2.468h12.75v-3.5a2.468,2.468,0,0,1,2.468-2.468A2.468,2.468,0,0,1-253.159-3977.708Zm-43.032,20.771a10.488,10.488,0,0,1,10.489-10.488,10.488,10.488,0,0,1,10.488,10.488,10.5,10.5,0,0,1-10.488,10.488A10.488,10.488,0,0,1-296.191-3956.936Zm4.936,0a5.561,5.561,0,0,0,5.553,5.553,5.553,5.553,0,0,0,5.553-5.553,5.553,5.553,0,0,0-5.553-5.553A5.553,5.553,0,0,0-291.255-3956.936Zm25.1-24.268a2.467,2.467,0,0,1-2.468-2.468,2.468,2.468,0,0,1,2.468-2.467h19.537a2.467,2.467,0,0,1,2.467,2.467,2.467,2.467,0,0,1-2.467,2.468Zm0-8.226a2.468,2.468,0,0,1-2.468-2.468,2.468,2.468,0,0,1,2.468-2.468h8.02a2.468,2.468,0,0,1,2.468,2.468,2.468,2.468,0,0,1-2.468,2.468Z" transform="translate(300 4003.62)" fill="#6874fc"/>
</svg>
